<svg xmlns="http://www.w3.org/2000/svg" width="1000" height="1000" viewBox="0 0 1000 1000">
  <defs>
		<filter x="-50%" y="-50%" width="200%" height="200%" filterUnits="objectBoundingBox" id="avatar-shadow">
			<feOffset dx="0" dy="0" in="SourceAlpha" result="shadowOffset"/>
			<feGaussianBlur stdDeviation="10" in="shadowOffset" result="shadowBlur"/>
			<feColorMatrix values="0 0 0 0 0 0 0 0 0 0 0 0 0 0 0 0 0 0 0.3 0" in="shadowBlur" result="shadowMatrix"/>
			<feMerge>
				<feMergeNode in="shadowMatrix"/>
				<feMergeNode in="SourceGraphic"/>
			</feMerge>
		</filter>
  </defs>

  <rect width="544.702" height="839.458" x="228.528" y="115.329" rx="224.89" ry="226.001" fill="#fff" />

  <g filter="url(#avatar-shadow)">
    <path d="M421.72 117.18c-111.541 7.396-199.482 117.648-195.339 227.434.39 135.016-.786 270.072.61 405.063 6.898 108.05 101.412 209.769 213.176 205.785 50.57-.87 101.323 1.976 151.747-1.916 109.779-16.055 188.872-127.622 181.35-235.943-.39-131.678.791-263.396-.607-395.049-4.541-71.159-47.09-139.563-107.536-176.846-.509 5.27-1.605 10.485-3.368 15.559-6.05 17.42-19.57 32.516-38.824 42.753-9.46 5.03-20.327 8.378-30.983 11.945 79.467 9.497 139.933 88.885 134.44 168.421-.405 107.902.816 215.852-.622 323.724-3.63 43.694-26.388 85.206-60.908 112.156-1.688-33.353 4.527-67.87-5.916-100.05-13.44-35.098-52.226-49.514-87.26-45.927-56.466.247-112.957-.502-169.406.39-43.617 3.145-73.017 47.142-67.484 88.78v56.804c-44.783-33.896-65.883-91.374-61.53-146.435.268-102.335-.545-204.694.414-307.013 2.354-46.68 27.048-91.282 63.421-119.808a73.808 73.808 0 0 1-.953-4.47c-3.534-19.915 1.49-39.072 10.39-55.452 17.563-32.323 49.366-56.24 75.188-69.905zm105.748 631.378c23.5.026 46.986.265 70.434 1.047 34.06 12.976 25.006 60.861 22.918 90.223-20.778 22.467-70.961 21.116-96.193 8.397-2.214-23.24 50.86-16.692 32.279-49.92-13.154-20.148-39.75-10.35-59.81-12.689-19.302 1.578-47.349-6.94-56.048 16.727-16.065 32.96 61.696 28.11 24.912 52.941-28.984-3.357-85.677 13.64-89.345-28.294 1.814-26.718-7.352-78.54 33.332-78.289 39.145.365 78.353-.187 117.521-.143z" />
    <path d="M382.808 287.213c61.52 51.403 145.112 40.72 173.406 35.152 3.576-.704 4.528-5.325 1.519-7.383-12.202-8.335-33.413-25.988-32.185-47.326 3.502-60.937 68.279-66.225 89.893-77.719 65.47-34.81 33.267-120.99-67.421-141.02-57.563-11.446-99.788.92-119.86 11.471-3.745 1.969-2.269 7.631 1.96 7.716 101.658 2.015 45.707 38.822.037 62.649-47.349 24.703-122.49 93.67-47.349 156.46" paint-order="markers stroke fill" />
  </g>
</svg>
