<?xml version="1.0" encoding="utf-8"?>
<!-- Generator: Adobe Illustrator 19.0.0, SVG Export Plug-In . SVG Version: 6.00 Build 0)  -->
<svg version="1.1" id="Layer_1" xmlns="http://www.w3.org/2000/svg" xmlns:xlink="http://www.w3.org/1999/xlink" x="0px" y="0px"
	 viewBox="0 0 300 300" style="enable-background:new 0 0 300 300;" xml:space="preserve">
	<defs xmlns="http://www.w3.org/2000/svg">
		<filter x="-50%" y="-50%" width="200%" height="200%" filterUnits="objectBoundingBox" id="avatar-shadow">
			<feOffset dx="0" dy="0" in="SourceAlpha" result="shadowOffset"/>
			<feGaussianBlur stdDeviation="10" in="shadowOffset" result="shadowBlur"/>
			<feColorMatrix values="0 0 0 0 0 0 0 0 0 0 0 0 0 0 0 0 0 0 0.2 0" in="shadowBlur" result="shadowMatrix"/>
			<feMerge>
				<feMergeNode in="shadowMatrix"/>
				<feMergeNode in="SourceGraphic"/>
			</feMerge>
		</filter>
	</defs>

	<g id="avatar-group" filter="url(#avatar-shadow)">
		<path id="avatar-beard" d="M203.3,145.1c-2.8,0-5,2.2-5,5v8.5v39.9c0,10.9-5.1,20.7-13.1,27v-15.1c0-8.8-7.2-16-16-16h-38.3
			c-8.8,0-16,7.2-16,16v15.1c-8-6.3-13.1-16-13.1-27v-39.9v-8.5c0-2.8-2.2-5-5-5s-5,2.2-5,5v8.5v39.9v8.5c0,24.4,19.9,47.3,44.3,47.3
			h28c24.4,0,44.3-22.9,44.3-47.3v-8.5v-39.9v-8.5C208.3,147.4,206.1,145.1,203.3,145.1z M157.7,228.1c2.9,0,5.3-2.5,5-5.5
			c-0.2-2.6-2.6-4.5-5.2-4.5h-15.1c-2.6,0-4.9,1.9-5.2,4.5c-0.3,3,2.1,5.5,5,5.5h0.4c1.3,0,2.4,1.1,2.4,2.4v0c0,1.3-1,2.4-2.3,2.4
			c-5,0.2-16.3,0.4-18-2c-2-2.8-1-11.6-0.4-15.8c0.3-1.8,1.4-3.5,3-4.2c1-0.5,2.2-0.7,3.4-0.7h38.3c1.2,0,2.3,0.3,3.4,0.7
			c1.7,0.8,2.8,2.4,3,4.2c0.6,4.2,1.6,13-0.4,15.8c-1.7,2.3-12.8,2.2-17.8,2c-1.3-0.1-2.3-1.1-2.3-2.4v0c0-1.3,1.1-2.4,2.4-2.4H157.7
			z"/>
		<path id="avatar-hair" d="M125,97.5c13.1,11,31,8.7,37,7.5c0.8-0.2,1-1.1,0.3-1.6c-2.6-1.8-7.1-5.5-6.9-10.1
			c0.7-13,14.6-14.1,19.2-16.6c14-7.4,7.1-25.8-14.4-30.1c-12.3-2.4-21.3,0.2-25.6,2.4c-0.8,0.4-0.5,1.6,0.4,1.6
			c21.7,0.4,9.8,8.3,0,13.4C125,69.4,109,84.1,125,97.5z"/>
	</g>
</svg>
